<svg xmlns="http://www.w3.org/2000/svg" viewBox="0 0 64 64">
  <defs>
    <linearGradient id="g" x1="0" y1="0" x2="1" y2="1">
      <stop offset="0%" stop-color="#C026D3"/>
      <stop offset="100%" stop-color="#2563EB"/>
    </linearGradient>
  </defs>
  <rect width="64" height="64" rx="14" fill="url(#g)"/>
  <g fill="white">
    <path d="M22 20h20a3 3 0 0 1 3 3v3H19v-3a3 3 0 0 1 3-3z"/>
    <path d="M20 28h24l-2 20a4 4 0 0 1-4 4H26a4 4 0 0 1-4-4L20 28zm6 5v14a2 2 0 0 0 3 0V33a2 2 0 0 0-3 0zm9 0v14a2 2 0 0 0 3 0V33a2 2 0 0 0-3 0z"/>
    <rect x="28" y="16" width="8" height="4" rx="1"/>
  </g>
</svg>
