<svg xmlns="http://www.w3.org/2000/svg" viewBox="0 0 192 192">
  <defs>
    <linearGradient id="g" x1="0" y1="0" x2="1" y2="1">
      <stop offset="0%" stop-color="#C026D3"/>
      <stop offset="100%" stop-color="#2563EB"/>
    </linearGradient>
  </defs>
  <rect width="192" height="192" rx="42" fill="url(#g)"/>
  <g fill="white">
    <path d="M64 58h64a8 8 0 0 1 8 8v8H56v-8a8 8 0 0 1 8-8z"/>
    <path d="M60 82h72l-6 60a12 12 0 0 1-12 11H78a12 12 0 0 1-12-11L60 82zm18 14v46a4 4 0 0 0 8 0V96a4 4 0 0 0-8 0zm28 0v46a4 4 0 0 0 8 0V96a4 4 0 0 0-8 0z"/>
    <rect x="82" y="46" width="28" height="10" rx="4"/>
  </g>
</svg>
