<svg xmlns="http://www.w3.org/2000/svg" viewBox="0 0 512 512">
  <defs>
    <linearGradient id="g" x1="0" y1="0" x2="1" y2="1">
      <stop offset="0%" stop-color="#C026D3"/>
      <stop offset="100%" stop-color="#2563EB"/>
    </linearGradient>
  </defs>
  <rect width="512" height="512" rx="112" fill="url(#g)"/>
  <g fill="white">
    <path d="M170 154h172a22 22 0 0 1 22 22v22H148v-22a22 22 0 0 1 22-22z"/>
    <path d="M158 220h196l-16 162a32 32 0 0 1-32 30H206a32 32 0 0 1-32-30L158 220zm48 38v122a10 10 0 0 0 20 0V258a10 10 0 0 0-20 0zm75 0v122a10 10 0 0 0 20 0V258a10 10 0 0 0-20 0z"/>
    <rect x="218" y="122" width="76" height="26" rx="10"/>
  </g>
</svg>
